<svg width="663" height="674" viewBox="0 0 663 674" fill="none" xmlns="http://www.w3.org/2000/svg">
<rect x="31" y="37" width="601" height="600" rx="50" fill="#9886FE"/>
<path d="M370.23 457.563C385.227 457.563 388.083 443.944 388.083 426.56C388.083 407.942 388 364.257 388 345.892C388 320.45 396.646 316.316 453.609 289.079L454 288.892C500 266.897 511.646 253.27 512.5 271.392C513.448 291.502 512.5 340.048 512.5 352.87C512.5 433.37 510.5 445.541 496.5 457.563C487 467.563 475 477.87 401.5 516.87C386.292 524.94 371.301 532.781 340.5 524.87C271 507.02 252.5 502.37 198 487.87C152.3 475.712 150 477.203 150 422.37V246.392C150 212.892 225.434 175.7 265.249 154.608C291 140.966 306.361 145.191 321 147.37C364 153.771 421.5 167.272 466.558 176.067C477.474 178.197 491.266 180.495 496.5 190.892C501.734 201.289 500.738 216.669 489 223.892C450 247.892 413.5 261.392 371.301 287.007C355.5 296.599 352.746 298.892 352.746 317.392V371.069V426.56C352.746 444.34 355.234 457.563 370.23 457.563Z" stroke="white" stroke-width="25" stroke-linecap="round"/>
<rect x="31" y="37" width="601" height="600" rx="50" fill="url(#paint0_linear_266_49)"/>
<path d="M325.35 490C289.65 490 258.3 483.7 231.3 471.1C204.3 458.2 183.3 439.9 168.3 416.2C153.6 392.5 146.25 364.6 146.25 332.5C146.25 300.4 153.6 271.9 168.3 247C183.3 222.1 203.55 202.9 229.05 189.4C254.85 175.6 283.65 168.7 315.45 168.7C346.95 168.7 375.45 175.6 400.95 189.4C426.75 202.9 447 222.1 461.7 247C476.4 271.9 483.75 300.4 483.75 332.5C483.75 350.5 479.4 368.35 470.7 386.05C462.3 403.45 451.8 417.4 439.2 427.9H491.85V490H325.35ZM315.45 422.05C331.35 422.05 345.9 418.45 359.1 411.25C372.3 404.05 382.8 393.7 390.6 380.2C398.4 366.7 402.3 350.95 402.3 332.95C402.3 314.95 398.4 299.35 390.6 286.15C383.1 272.65 372.75 262.3 359.55 255.1C346.35 247.6 331.65 243.85 315.45 243.85C298.95 243.85 284.1 247.6 270.9 255.1C257.7 262.3 247.2 272.65 239.4 286.15C231.9 299.35 228.15 314.95 228.15 332.95C228.15 350.95 231.9 366.7 239.4 380.2C247.2 393.7 257.7 404.05 270.9 411.25C284.4 418.45 299.25 422.05 315.45 422.05Z" fill="white"/>
<defs>
<linearGradient id="paint0_linear_266_49" x1="331.5" y1="37" x2="331.5" y2="637" gradientUnits="userSpaceOnUse">
<stop stop-color="#9A88FF"/>
<stop offset="1" stop-color="#221D40"/>
</linearGradient>
</defs>
</svg>
